<svg width="300" height="300" viewBox="0 0 300 221.19" fill="#0092ca" xmlns="http://www.w3.org/2000/svg">
  <g transform="matrix(2.5,0,0,2.5,60,-10)">
    <path d="M63.9,30.2c0.7,0.7,1.1,1.7,1.1,2.7c0,1-0.4,2-1.1,2.7c-0.7,0.7-1.6,1.1-2.7,1.1c-1,0-2-0.4-2.7-1.1     c-0.4-0.4-0.7-0.9-0.9-1.4l-28.8,0c-0.5,0-1-0.5-1-1c0-0.5,0.5-1,1-1l28.6,0c0.3-1.8,1.9-3.1,3.8-3.1c0,0,0,0,0,0     C62.2,29.1,63.2,29.5,63.9,30.2z"/>
    <path d="M58.2,58.3c0.7,0.7,1.1,1.7,1.1,2.7c0,1-0.4,2-1.1,2.7c-0.7,0.7-1.7,1.1-2.7,1.1c-2.1,0-3.8-1.7-3.8-3.8     c0-0.8,0.2-1.5,0.7-2.2l-6.1-6l-13.5,0c-5.3,0-10.3-2.1-14.1-5.8c-3.8-3.8-5.8-8.8-5.8-14.1c0-5.3,2.1-10.3,5.8-14.1     c3.8-3.8,8.8-5.8,14.1-5.8c0,0,0,0,0,0l13.6,0L52.1,8c-0.3-0.5-0.4-1.1-0.4-1.7c0-1,0.4-2,1.1-2.7c0.7-0.7,1.7-1.1,2.7-1.1h0     c1,0,2,0.4,2.7,1.1c0.7,0.7,1.1,1.7,1.1,2.7c0,1-0.4,2-1.1,2.7c-0.7,0.7-1.7,1.1-2.7,1.1c-0.8,0-1.5-0.2-2.1-0.6l-6.1,5.3     c-0.2,0.2-0.4,0.3-0.7,0.3l-14,0h0c-4.8,0-9.3,1.9-12.6,5.2c-3.4,3.4-5.3,7.9-5.3,12.7c0,4.8,1.9,9.3,5.2,12.7     c3.4,3.4,7.9,5.3,12.7,5.3l14,0c0.3,0,0.5,0.1,0.7,0.3l6.5,6.4c0.5-0.2,1.1-0.4,1.6-0.4C56.5,57.2,57.5,57.6,58.2,58.3z"/>
    <path d="M39.6,57.6l-1.1,6.2c-0.1,0.5-0.5,0.8-1,0.8l-9.5,0c-0.5,0-0.9-0.4-1-0.8l-1-5.6c-2.3-0.6-4.4-1.5-6.4-2.6l-4.6,3.2     c-0.4,0.3-0.9,0.2-1.3-0.1l-6.8-6.8c-0.3-0.3-0.4-0.9-0.1-1.3L10,46c-1.2-2-2.1-4.2-2.6-6.4l-5.6-1c-0.5-0.1-0.8-0.5-0.8-1l0-9.5     c0-0.5,0.3-0.9,0.8-1l5.5-1c0.6-2.2,1.5-4.4,2.7-6.4l-3.2-4.6c-0.3-0.4-0.2-0.9,0.1-1.3l6.8-6.8C14,6.7,14.6,6.7,15,7l4.6,3.2     c2-1.2,4.1-2,6.4-2.6L27,2c0.1-0.5,0.5-0.8,1-0.8h9.6c0.5,0,0.9,0.4,1,0.8l1.1,6.2c0.1,0.6-0.3,1.1-0.8,1.2     c-0.5,0.1-1.1-0.3-1.2-0.8l-0.9-5.4h-7.9l-1,5.4c-0.1,0.4-0.4,0.7-0.8,0.8c-2.5,0.6-4.8,1.5-7,2.9c-0.3,0.2-0.8,0.2-1.1,0     l-4.5-3.1l-5.6,5.6l3.1,4.5c0.2,0.3,0.2,0.8,0,1.1c-1.3,2.2-2.3,4.5-2.9,7c-0.1,0.4-0.4,0.7-0.8,0.8L3,29v7.9l5.4,1     c0.4,0.1,0.7,0.4,0.8,0.8c0.6,2.5,1.5,4.8,2.9,7c0.2,0.3,0.2,0.8,0,1.1l-3.1,4.5l5.6,5.6l4.5-3.1c0.3-0.2,0.8-0.2,1.1,0     c2.2,1.4,4.5,2.3,7,2.9c0.4,0.1,0.7,0.4,0.8,0.8l0.9,5.4l7.9,0l1-5.4c0.1-0.5,0.6-0.9,1.2-0.8C39.3,56.5,39.7,57.1,39.6,57.6z"/>
    <path d="M63.9,47.9c0.7,0.7,1.1,1.7,1.1,2.7s-0.4,1.9-1.1,2.7c-0.7,0.7-1.7,1.1-2.7,1.1c-1,0-2-0.4-2.7-1.1c-0.5-0.5-0.8-1-1-1.6     l-1.6,0c-0.3,0-0.5-0.1-0.7-0.3l-5-5l-16.8,0c-7.1,0-12.8-5.8-12.8-12.8v-0.5c0-3.4,1.3-6.7,3.8-9.1c2.4-2.4,5.6-3.8,9.1-3.8h0     l16.8,0l5-5c0.2-0.2,0.4-0.3,0.7-0.3h1.6c0.4-1.6,1.9-2.8,3.6-2.8c1,0,2,0.4,2.7,1.1c0.7,0.7,1.1,1.7,1.1,2.7c0,1-0.4,2-1.1,2.7     c-0.7,0.7-1.7,1.1-2.7,1.1c-1,0-2-0.4-2.7-1.1c-0.5-0.5-0.8-1-1-1.7h-1.2l-5,5c-0.2,0.2-0.4,0.3-0.7,0.3l-17.2,0c0,0,0,0,0,0     c-2.9,0-5.6,1.1-7.7,3.2c-2,2-3.2,4.8-3.2,7.7v0.5c0,6,4.9,10.8,10.8,10.8l17.2,0c0.3,0,0.5,0.1,0.7,0.3l5,5l1.2,0     c0.2-0.6,0.5-1.2,1-1-1.7c0.7-0.7,1.7-1.1,2.7-1.1C62.2,46.8,63.2,47.2,63.9,47.9z"/>
  </g>
</svg>
